<mxfile host="app.diagrams.net" modified="2023-09-20T10:23:04.975Z" agent="Mozilla/5.0 (Windows NT 10.0; Win64; x64) AppleWebKit/537.36 (KHTML, like Gecko) Chrome/115.0.0.0 Safari/537.36 OPR/101.0.0.0" etag="l694tR_3cPvijiRnaFAZ" version="21.7.5" type="device" pages="3">
  <diagram id="tGHFpZ71mEW-jlP2jvY3" name="Conceptual view">
    <mxGraphModel dx="672" dy="786" grid="1" gridSize="10" guides="1" tooltips="1" connect="1" arrows="1" fold="1" page="1" pageScale="1" pageWidth="827" pageHeight="1169" math="0" shadow="0">
      <root>
        <mxCell id="0" />
        <mxCell id="1" parent="0" />
        <mxCell id="gQCNVUvuECYCDG2U5iRQ-3" value="Internal network" style="swimlane;whiteSpace=wrap;html=1;" vertex="1" parent="1">
          <mxGeometry x="210" y="770" width="560" height="370" as="geometry" />
        </mxCell>
        <mxCell id="gQCNVUvuECYCDG2U5iRQ-8" value="" style="shape=flexArrow;endArrow=classic;startArrow=classic;html=1;rounded=0;entryX=0.25;entryY=1;entryDx=0;entryDy=0;" edge="1" parent="gQCNVUvuECYCDG2U5iRQ-3" source="gQCNVUvuECYCDG2U5iRQ-40" target="mVgJ96nfb_Jpui2nZ-Mp-16">
          <mxGeometry width="100" height="100" relative="1" as="geometry">
            <mxPoint x="120" y="270" as="sourcePoint" />
            <mxPoint x="160" y="140" as="targetPoint" />
          </mxGeometry>
        </mxCell>
        <mxCell id="gQCNVUvuECYCDG2U5iRQ-11" value="" style="shape=flexArrow;endArrow=classic;startArrow=classic;html=1;rounded=0;entryX=0.75;entryY=1;entryDx=0;entryDy=0;" edge="1" parent="gQCNVUvuECYCDG2U5iRQ-3" source="gQCNVUvuECYCDG2U5iRQ-41" target="mVgJ96nfb_Jpui2nZ-Mp-16">
          <mxGeometry width="100" height="100" relative="1" as="geometry">
            <mxPoint x="430" y="270" as="sourcePoint" />
            <mxPoint x="410" y="130" as="targetPoint" />
          </mxGeometry>
        </mxCell>
        <mxCell id="gQCNVUvuECYCDG2U5iRQ-40" value="&lt;b&gt;Load monitoring&lt;/b&gt;" style="rounded=0;whiteSpace=wrap;html=1;" vertex="1" parent="gQCNVUvuECYCDG2U5iRQ-3">
          <mxGeometry x="40" y="270" width="220" height="80" as="geometry" />
        </mxCell>
        <mxCell id="gQCNVUvuECYCDG2U5iRQ-41" value="&lt;b&gt;Errors monitoring&lt;/b&gt;" style="rounded=0;whiteSpace=wrap;html=1;" vertex="1" parent="gQCNVUvuECYCDG2U5iRQ-3">
          <mxGeometry x="300" y="270" width="220" height="80" as="geometry" />
        </mxCell>
        <mxCell id="mVgJ96nfb_Jpui2nZ-Mp-16" value="Monitoring gateway&lt;br&gt;Internal" style="strokeColor=#dddddd;shadow=1;strokeWidth=1;rounded=1;absoluteArcSize=1;arcSize=2;labelPosition=center;verticalLabelPosition=middle;align=center;verticalAlign=bottom;spacingLeft=0;fontColor=#999999;fontSize=12;whiteSpace=wrap;spacingBottom=2;html=1;" vertex="1" parent="gQCNVUvuECYCDG2U5iRQ-3">
          <mxGeometry x="20" y="50" width="520" height="85" as="geometry" />
        </mxCell>
        <mxCell id="mVgJ96nfb_Jpui2nZ-Mp-17" value="" style="sketch=0;dashed=0;connectable=0;html=1;fillColor=#757575;strokeColor=none;shape=mxgraph.gcp2.gateway_icon;part=1;" vertex="1" parent="mVgJ96nfb_Jpui2nZ-Mp-16">
          <mxGeometry x="0.5" width="50" height="22" relative="1" as="geometry">
            <mxPoint x="-25" y="24" as="offset" />
          </mxGeometry>
        </mxCell>
        <mxCell id="YQqYht0uR9J-s6g8k-GE-2" value="&lt;b&gt;Front end&lt;/b&gt;" style="rounded=0;whiteSpace=wrap;html=1;" vertex="1" parent="1">
          <mxGeometry x="40" y="200" width="110" height="60" as="geometry" />
        </mxCell>
        <mxCell id="mVgJ96nfb_Jpui2nZ-Mp-1" value="" style="shape=flexArrow;endArrow=classic;startArrow=classic;html=1;rounded=0;" edge="1" parent="1" source="YQqYht0uR9J-s6g8k-GE-23" target="YQqYht0uR9J-s6g8k-GE-2">
          <mxGeometry width="100" height="100" relative="1" as="geometry">
            <mxPoint x="90" y="360" as="sourcePoint" />
            <mxPoint x="190" y="260" as="targetPoint" />
          </mxGeometry>
        </mxCell>
        <mxCell id="mVgJ96nfb_Jpui2nZ-Mp-5" value="" style="shape=flexArrow;endArrow=classic;startArrow=classic;html=1;rounded=0;" edge="1" parent="1" source="YQqYht0uR9J-s6g8k-GE-23" target="HVA4uMyzCTE7-ibYVjcF-3">
          <mxGeometry width="100" height="100" relative="1" as="geometry">
            <mxPoint x="130" y="380" as="sourcePoint" />
            <mxPoint x="590" y="230" as="targetPoint" />
          </mxGeometry>
        </mxCell>
        <mxCell id="HVA4uMyzCTE7-ibYVjcF-4" style="edgeStyle=orthogonalEdgeStyle;rounded=0;orthogonalLoop=1;jettySize=auto;html=1;" edge="1" parent="1" source="YQqYht0uR9J-s6g8k-GE-23" target="HVA4uMyzCTE7-ibYVjcF-1">
          <mxGeometry relative="1" as="geometry" />
        </mxCell>
        <mxCell id="YQqYht0uR9J-s6g8k-GE-23" value="&lt;b&gt;Main app&lt;/b&gt;" style="rounded=0;whiteSpace=wrap;html=1;" vertex="1" parent="1">
          <mxGeometry x="265" y="200" width="160" height="60" as="geometry" />
        </mxCell>
        <mxCell id="HVA4uMyzCTE7-ibYVjcF-1" value="&lt;b&gt;Primary storage&lt;/b&gt;" style="shape=cylinder3;whiteSpace=wrap;html=1;boundedLbl=1;backgroundOutline=1;size=15;" vertex="1" parent="1">
          <mxGeometry x="270" y="50" width="150" height="90" as="geometry" />
        </mxCell>
        <mxCell id="HVA4uMyzCTE7-ibYVjcF-2" value="&lt;b&gt;Secondary storage&lt;/b&gt;" style="shape=cylinder3;whiteSpace=wrap;html=1;boundedLbl=1;backgroundOutline=1;size=15;" vertex="1" parent="1">
          <mxGeometry x="560" y="50" width="150" height="90" as="geometry" />
        </mxCell>
        <mxCell id="HVA4uMyzCTE7-ibYVjcF-5" style="edgeStyle=orthogonalEdgeStyle;rounded=0;orthogonalLoop=1;jettySize=auto;html=1;" edge="1" parent="1" source="HVA4uMyzCTE7-ibYVjcF-3" target="HVA4uMyzCTE7-ibYVjcF-2">
          <mxGeometry relative="1" as="geometry" />
        </mxCell>
        <mxCell id="HVA4uMyzCTE7-ibYVjcF-3" value="&lt;b&gt;Additional services&lt;/b&gt;" style="rounded=0;whiteSpace=wrap;html=1;" vertex="1" parent="1">
          <mxGeometry x="550" y="200" width="170" height="60" as="geometry" />
        </mxCell>
        <mxCell id="HVA4uMyzCTE7-ibYVjcF-6" value="Load and errors monitoring services" style="rounded=0;whiteSpace=wrap;html=1;" vertex="1" parent="1">
          <mxGeometry x="270" y="380" width="455" height="60" as="geometry" />
        </mxCell>
        <mxCell id="HVA4uMyzCTE7-ibYVjcF-7" value="" style="shape=flexArrow;endArrow=classic;startArrow=classic;html=1;rounded=0;entryX=0.165;entryY=0;entryDx=0;entryDy=0;entryPerimeter=0;" edge="1" parent="1" source="YQqYht0uR9J-s6g8k-GE-23" target="HVA4uMyzCTE7-ibYVjcF-6">
          <mxGeometry width="100" height="100" relative="1" as="geometry">
            <mxPoint x="435" y="240" as="sourcePoint" />
            <mxPoint x="560" y="240" as="targetPoint" />
          </mxGeometry>
        </mxCell>
        <mxCell id="HVA4uMyzCTE7-ibYVjcF-8" value="" style="shape=flexArrow;endArrow=classic;startArrow=classic;html=1;rounded=0;" edge="1" parent="1" source="HVA4uMyzCTE7-ibYVjcF-3">
          <mxGeometry width="100" height="100" relative="1" as="geometry">
            <mxPoint x="363" y="270" as="sourcePoint" />
            <mxPoint x="635" y="370" as="targetPoint" />
          </mxGeometry>
        </mxCell>
      </root>
    </mxGraphModel>
  </diagram>
  <diagram id="qBPQCAHnJ_A8usk7CN8H" name="Network">
    <mxGraphModel dx="3029" dy="2651" grid="1" gridSize="10" guides="1" tooltips="1" connect="1" arrows="1" fold="1" page="1" pageScale="1" pageWidth="827" pageHeight="1169" math="0" shadow="0">
      <root>
        <mxCell id="0" />
        <mxCell id="1" parent="0" />
        <mxCell id="hn8JCuyP-MTIvOFzyS8r-91" value="" style="shape=flexArrow;endArrow=classic;startArrow=classic;html=1;rounded=0;entryX=1;entryY=0.5;entryDx=0;entryDy=0;" edge="1" parent="1" source="hn8JCuyP-MTIvOFzyS8r-102" target="b5eZytghJr9PdRg-iDmn-6">
          <mxGeometry width="100" height="100" relative="1" as="geometry">
            <mxPoint x="657.0588235294117" y="670" as="sourcePoint" />
            <mxPoint x="485" y="540.0000000000005" as="targetPoint" />
          </mxGeometry>
        </mxCell>
        <mxCell id="hn8JCuyP-MTIvOFzyS8r-92" value="&lt;font style=&quot;font-size: 13px;&quot;&gt;HTTPS&lt;br&gt;&lt;/font&gt;" style="edgeLabel;html=1;align=center;verticalAlign=middle;resizable=0;points=[];" vertex="1" connectable="0" parent="hn8JCuyP-MTIvOFzyS8r-91">
          <mxGeometry x="0.0064" y="-1" relative="1" as="geometry">
            <mxPoint as="offset" />
          </mxGeometry>
        </mxCell>
        <mxCell id="hn8JCuyP-MTIvOFzyS8r-93" value="" style="shape=flexArrow;endArrow=classic;startArrow=classic;html=1;rounded=0;" edge="1" parent="1" source="hn8JCuyP-MTIvOFzyS8r-102" target="eeY6LI7gurINRhn50e_K-1">
          <mxGeometry width="100" height="100" relative="1" as="geometry">
            <mxPoint x="771.7647058823532" y="670" as="sourcePoint" />
            <mxPoint x="972.4999999999995" y="540.0000000000005" as="targetPoint" />
          </mxGeometry>
        </mxCell>
        <mxCell id="hn8JCuyP-MTIvOFzyS8r-94" value="&lt;font style=&quot;font-size: 13px;&quot;&gt;HTTPS&lt;br&gt;&lt;/font&gt;" style="edgeLabel;html=1;align=center;verticalAlign=middle;resizable=0;points=[];" vertex="1" connectable="0" parent="hn8JCuyP-MTIvOFzyS8r-93">
          <mxGeometry x="0.0064" y="-1" relative="1" as="geometry">
            <mxPoint x="-1" y="-16" as="offset" />
          </mxGeometry>
        </mxCell>
        <mxCell id="hn8JCuyP-MTIvOFzyS8r-95" value="" style="shape=flexArrow;endArrow=classic;startArrow=classic;html=1;rounded=0;" edge="1" parent="1" source="hn8JCuyP-MTIvOFzyS8r-102" target="hn8JCuyP-MTIvOFzyS8r-89">
          <mxGeometry width="100" height="100" relative="1" as="geometry">
            <mxPoint x="657.5" y="750" as="sourcePoint" />
            <mxPoint x="546.6666666666667" y="830" as="targetPoint" />
          </mxGeometry>
        </mxCell>
        <mxCell id="hn8JCuyP-MTIvOFzyS8r-96" value="&lt;font style=&quot;font-size: 13px;&quot;&gt;HTTPS&lt;br&gt;&lt;/font&gt;" style="edgeLabel;html=1;align=center;verticalAlign=middle;resizable=0;points=[];" vertex="1" connectable="0" parent="hn8JCuyP-MTIvOFzyS8r-95">
          <mxGeometry x="0.0064" y="-1" relative="1" as="geometry">
            <mxPoint as="offset" />
          </mxGeometry>
        </mxCell>
        <mxCell id="hn8JCuyP-MTIvOFzyS8r-97" value="&lt;b&gt;Front end&lt;/b&gt;" style="rounded=0;whiteSpace=wrap;html=1;" vertex="1" parent="1">
          <mxGeometry x="10" y="-214" width="130" height="60" as="geometry" />
        </mxCell>
        <mxCell id="hn8JCuyP-MTIvOFzyS8r-98" value="" style="shape=flexArrow;endArrow=classic;startArrow=classic;html=1;rounded=0;" edge="1" parent="1" source="hn8JCuyP-MTIvOFzyS8r-55" target="hn8JCuyP-MTIvOFzyS8r-97">
          <mxGeometry width="100" height="100" relative="1" as="geometry">
            <mxPoint x="230" y="140" as="sourcePoint" />
            <mxPoint x="330" y="40" as="targetPoint" />
          </mxGeometry>
        </mxCell>
        <mxCell id="hn8JCuyP-MTIvOFzyS8r-99" value="HTTPS" style="edgeLabel;html=1;align=center;verticalAlign=middle;resizable=0;points=[];" vertex="1" connectable="0" parent="hn8JCuyP-MTIvOFzyS8r-98">
          <mxGeometry x="-0.0093" relative="1" as="geometry">
            <mxPoint y="-14" as="offset" />
          </mxGeometry>
        </mxCell>
        <mxCell id="hn8JCuyP-MTIvOFzyS8r-100" value="" style="shape=flexArrow;endArrow=classic;startArrow=classic;html=1;rounded=0;" edge="1" parent="1" source="hn8JCuyP-MTIvOFzyS8r-55" target="hn8JCuyP-MTIvOFzyS8r-63">
          <mxGeometry width="100" height="100" relative="1" as="geometry">
            <mxPoint x="270" y="160" as="sourcePoint" />
            <mxPoint x="270" y="50" as="targetPoint" />
          </mxGeometry>
        </mxCell>
        <mxCell id="hn8JCuyP-MTIvOFzyS8r-101" value="HTTPS" style="edgeLabel;html=1;align=center;verticalAlign=middle;resizable=0;points=[];" vertex="1" connectable="0" parent="hn8JCuyP-MTIvOFzyS8r-100">
          <mxGeometry x="-0.0093" relative="1" as="geometry">
            <mxPoint y="-15" as="offset" />
          </mxGeometry>
        </mxCell>
        <mxCell id="hn8JCuyP-MTIvOFzyS8r-102" value="Monitoring gateway&lt;br&gt;Public" style="image;aspect=fixed;perimeter=ellipsePerimeter;html=1;align=center;shadow=0;dashed=0;fontColor=#4277BB;labelBackgroundColor=default;fontSize=12;spacingTop=3;image=img/lib/ibm/vpc/PublicGateway.svg;" vertex="1" parent="1">
          <mxGeometry x="767" y="230" width="60" height="60" as="geometry" />
        </mxCell>
        <mxCell id="hn8JCuyP-MTIvOFzyS8r-55" value="&lt;b&gt;Back end&lt;br&gt;Primary services&lt;/b&gt;&lt;br&gt;&amp;lt;Users&amp;gt;&lt;br&gt;&amp;lt;Roles&amp;gt;&lt;br&gt;&amp;lt;Skills&amp;gt;&lt;br&gt;&amp;lt;Assessments&amp;gt;&lt;br&gt;&amp;lt;Positions&amp;gt;&lt;br&gt;&amp;lt;Scheduler&amp;gt;" style="rounded=0;whiteSpace=wrap;html=1;" vertex="1" parent="1">
          <mxGeometry x="260" y="-269" width="230" height="170" as="geometry" />
        </mxCell>
        <mxCell id="hn8JCuyP-MTIvOFzyS8r-54" value="&lt;b&gt;App info DB Server&lt;br style=&quot;border-color: var(--border-color); color: rgb(0, 0, 0);&quot;&gt;&lt;/b&gt;&amp;lt;MS SQL Server&amp;gt;" style="sketch=0;outlineConnect=0;fontColor=#232F3E;gradientColor=none;fillColor=#C925D1;strokeColor=none;dashed=0;verticalLabelPosition=bottom;verticalAlign=top;align=center;html=1;fontSize=12;fontStyle=0;aspect=fixed;pointerEvents=1;shape=mxgraph.aws4.rds_sql_server_instance;" vertex="1" parent="1">
          <mxGeometry x="430" y="-460" width="78" height="78" as="geometry" />
        </mxCell>
        <mxCell id="hn8JCuyP-MTIvOFzyS8r-53" value="&lt;b&gt;Documents DB&lt;/b&gt;&lt;br&gt;&amp;lt;Mongo DB&amp;gt;" style="shape=cylinder3;whiteSpace=wrap;html=1;boundedLbl=1;backgroundOutline=1;size=15;" vertex="1" parent="1">
          <mxGeometry x="220" y="-460" width="110" height="90" as="geometry" />
        </mxCell>
        <mxCell id="hn8JCuyP-MTIvOFzyS8r-56" value="Hangfire worker" style="outlineConnect=0;dashed=0;verticalLabelPosition=bottom;verticalAlign=top;align=center;html=1;shape=mxgraph.aws3.worker;fillColor=#D9A741;gradientColor=none;" vertex="1" parent="1">
          <mxGeometry x="260" width="60" height="63" as="geometry" />
        </mxCell>
        <mxCell id="hn8JCuyP-MTIvOFzyS8r-60" value="Redis cache" style="image;sketch=0;aspect=fixed;html=1;points=[];align=center;fontSize=12;image=img/lib/mscae/Cache_Redis_Product.svg;" vertex="1" parent="1">
          <mxGeometry x="100" width="71.43" height="60" as="geometry" />
        </mxCell>
        <mxCell id="hn8JCuyP-MTIvOFzyS8r-57" value="" style="endArrow=classic;startArrow=classic;html=1;rounded=0;" edge="1" parent="1" source="hn8JCuyP-MTIvOFzyS8r-54" target="hn8JCuyP-MTIvOFzyS8r-55">
          <mxGeometry width="50" height="50" relative="1" as="geometry">
            <mxPoint x="760" y="370" as="sourcePoint" />
            <mxPoint x="810" y="320" as="targetPoint" />
          </mxGeometry>
        </mxCell>
        <mxCell id="hn8JCuyP-MTIvOFzyS8r-58" value="" style="endArrow=classic;startArrow=classic;html=1;rounded=0;" edge="1" parent="1" source="hn8JCuyP-MTIvOFzyS8r-53" target="hn8JCuyP-MTIvOFzyS8r-55">
          <mxGeometry width="50" height="50" relative="1" as="geometry">
            <mxPoint x="287" y="400" as="sourcePoint" />
            <mxPoint x="302" y="330" as="targetPoint" />
          </mxGeometry>
        </mxCell>
        <mxCell id="b5eZytghJr9PdRg-iDmn-3" value="Assessment results&lt;br&gt;Assessment attachments" style="edgeLabel;html=1;align=center;verticalAlign=middle;resizable=0;points=[];" vertex="1" connectable="0" parent="hn8JCuyP-MTIvOFzyS8r-58">
          <mxGeometry x="-0.2223" relative="1" as="geometry">
            <mxPoint as="offset" />
          </mxGeometry>
        </mxCell>
        <mxCell id="hn8JCuyP-MTIvOFzyS8r-59" value="" style="endArrow=classic;startArrow=classic;html=1;rounded=0;" edge="1" parent="1" source="hn8JCuyP-MTIvOFzyS8r-56" target="hn8JCuyP-MTIvOFzyS8r-55">
          <mxGeometry width="50" height="50" relative="1" as="geometry">
            <mxPoint x="390" y="440" as="sourcePoint" />
            <mxPoint x="440" y="390" as="targetPoint" />
          </mxGeometry>
        </mxCell>
        <mxCell id="b5eZytghJr9PdRg-iDmn-1" value="Recurring jobs&lt;br&gt;&amp;amp;&lt;br&gt;Reminders" style="edgeLabel;html=1;align=center;verticalAlign=middle;resizable=0;points=[];" vertex="1" connectable="0" parent="hn8JCuyP-MTIvOFzyS8r-59">
          <mxGeometry x="0.093" y="2" relative="1" as="geometry">
            <mxPoint as="offset" />
          </mxGeometry>
        </mxCell>
        <mxCell id="hn8JCuyP-MTIvOFzyS8r-61" value="" style="endArrow=classic;startArrow=classic;html=1;rounded=0;" edge="1" parent="1" source="hn8JCuyP-MTIvOFzyS8r-60" target="hn8JCuyP-MTIvOFzyS8r-55">
          <mxGeometry width="50" height="50" relative="1" as="geometry">
            <mxPoint x="570" y="340" as="sourcePoint" />
            <mxPoint x="620" y="290" as="targetPoint" />
          </mxGeometry>
        </mxCell>
        <mxCell id="b5eZytghJr9PdRg-iDmn-2" value="Users&lt;br&gt;Skills&lt;br&gt;Positions" style="edgeLabel;html=1;align=center;verticalAlign=middle;resizable=0;points=[];" vertex="1" connectable="0" parent="hn8JCuyP-MTIvOFzyS8r-61">
          <mxGeometry x="-0.0106" y="1" relative="1" as="geometry">
            <mxPoint as="offset" />
          </mxGeometry>
        </mxCell>
        <mxCell id="hn8JCuyP-MTIvOFzyS8r-103" value="port 443&lt;br&gt;TLS 1.2" style="text;html=1;align=left;verticalAlign=middle;resizable=0;points=[];autosize=1;strokeColor=none;fillColor=none;" vertex="1" parent="1">
          <mxGeometry x="210" y="-170" width="70" height="40" as="geometry" />
        </mxCell>
        <mxCell id="hn8JCuyP-MTIvOFzyS8r-63" value="Secondary services gateway" style="rounded=0;whiteSpace=wrap;html=1;fontStyle=1" vertex="1" parent="1">
          <mxGeometry x="670" y="-214" width="120" height="60" as="geometry" />
        </mxCell>
        <mxCell id="hn8JCuyP-MTIvOFzyS8r-70" value="" style="shape=flexArrow;endArrow=classic;startArrow=classic;html=1;rounded=0;entryX=1;entryY=1;entryDx=0;entryDy=0;exitX=0;exitY=0;exitDx=0;exitDy=0;" edge="1" parent="1" source="hn8JCuyP-MTIvOFzyS8r-65" target="hn8JCuyP-MTIvOFzyS8r-63">
          <mxGeometry width="100" height="100" relative="1" as="geometry">
            <mxPoint x="860" y="640" as="sourcePoint" />
            <mxPoint x="960" y="550" as="targetPoint" />
          </mxGeometry>
        </mxCell>
        <mxCell id="hn8JCuyP-MTIvOFzyS8r-71" value="&lt;font style=&quot;font-size: 13px;&quot;&gt;HTTPS&lt;br&gt;&lt;/font&gt;" style="edgeLabel;html=1;align=center;verticalAlign=middle;resizable=0;points=[];" vertex="1" connectable="0" parent="hn8JCuyP-MTIvOFzyS8r-70">
          <mxGeometry x="0.0064" y="-1" relative="1" as="geometry">
            <mxPoint as="offset" />
          </mxGeometry>
        </mxCell>
        <mxCell id="hn8JCuyP-MTIvOFzyS8r-72" value="" style="shape=flexArrow;endArrow=classic;startArrow=classic;html=1;rounded=0;" edge="1" parent="1" source="hn8JCuyP-MTIvOFzyS8r-67" target="hn8JCuyP-MTIvOFzyS8r-63">
          <mxGeometry width="100" height="100" relative="1" as="geometry">
            <mxPoint x="962" y="320" as="sourcePoint" />
            <mxPoint x="1058" y="230" as="targetPoint" />
          </mxGeometry>
        </mxCell>
        <mxCell id="hn8JCuyP-MTIvOFzyS8r-73" value="&lt;font style=&quot;font-size: 13px;&quot;&gt;HTTPS&lt;br&gt;&lt;/font&gt;" style="edgeLabel;html=1;align=center;verticalAlign=middle;resizable=0;points=[];" vertex="1" connectable="0" parent="hn8JCuyP-MTIvOFzyS8r-72">
          <mxGeometry x="0.0064" y="-1" relative="1" as="geometry">
            <mxPoint as="offset" />
          </mxGeometry>
        </mxCell>
        <mxCell id="hn8JCuyP-MTIvOFzyS8r-74" value="" style="shape=flexArrow;endArrow=classic;startArrow=classic;html=1;rounded=0;" edge="1" parent="1" source="hn8JCuyP-MTIvOFzyS8r-69" target="hn8JCuyP-MTIvOFzyS8r-63">
          <mxGeometry width="100" height="100" relative="1" as="geometry">
            <mxPoint x="1090" y="320" as="sourcePoint" />
            <mxPoint x="1090" y="230" as="targetPoint" />
          </mxGeometry>
        </mxCell>
        <mxCell id="hn8JCuyP-MTIvOFzyS8r-75" value="&lt;font style=&quot;font-size: 13px;&quot;&gt;HTTPS&lt;br&gt;&lt;/font&gt;" style="edgeLabel;html=1;align=center;verticalAlign=middle;resizable=0;points=[];" vertex="1" connectable="0" parent="hn8JCuyP-MTIvOFzyS8r-74">
          <mxGeometry x="0.0064" y="-1" relative="1" as="geometry">
            <mxPoint y="-12" as="offset" />
          </mxGeometry>
        </mxCell>
        <mxCell id="XeERWds_iLC4FEaqR78I-11" style="edgeStyle=orthogonalEdgeStyle;rounded=0;orthogonalLoop=1;jettySize=auto;html=1;fillColor=#d80073;strokeColor=#A50040;" edge="1" parent="1" source="hn8JCuyP-MTIvOFzyS8r-78" target="XeERWds_iLC4FEaqR78I-10">
          <mxGeometry relative="1" as="geometry">
            <Array as="points">
              <mxPoint x="1060" y="-254" />
            </Array>
          </mxGeometry>
        </mxCell>
        <mxCell id="hn8JCuyP-MTIvOFzyS8r-78" value="Secondary documents service" style="rounded=0;whiteSpace=wrap;html=1;fontStyle=1" vertex="1" parent="1">
          <mxGeometry x="1000" y="-380" width="120" height="60" as="geometry" />
        </mxCell>
        <mxCell id="hn8JCuyP-MTIvOFzyS8r-76" value="&lt;b&gt;Secondary documents DB&lt;br&gt;&lt;/b&gt;&amp;lt;Mongo DB&amp;gt;" style="shape=cylinder3;whiteSpace=wrap;html=1;boundedLbl=1;backgroundOutline=1;size=15;" vertex="1" parent="1">
          <mxGeometry x="1424" y="-395" width="150" height="90" as="geometry" />
        </mxCell>
        <mxCell id="hn8JCuyP-MTIvOFzyS8r-77" style="edgeStyle=orthogonalEdgeStyle;rounded=0;orthogonalLoop=1;jettySize=auto;html=1;startArrow=classic;startFill=1;" edge="1" parent="1" source="hn8JCuyP-MTIvOFzyS8r-78" target="hn8JCuyP-MTIvOFzyS8r-76">
          <mxGeometry relative="1" as="geometry" />
        </mxCell>
        <mxCell id="b5eZytghJr9PdRg-iDmn-4" value="Guides&lt;br&gt;Tutorials&lt;br&gt;Old reviews" style="edgeLabel;html=1;align=center;verticalAlign=middle;resizable=0;points=[];" vertex="1" connectable="0" parent="hn8JCuyP-MTIvOFzyS8r-77">
          <mxGeometry x="-0.0526" y="1" relative="1" as="geometry">
            <mxPoint as="offset" />
          </mxGeometry>
        </mxCell>
        <mxCell id="XeERWds_iLC4FEaqR78I-3" style="edgeStyle=orthogonalEdgeStyle;rounded=0;orthogonalLoop=1;jettySize=auto;html=1;fillColor=#d80073;strokeColor=#A50040;" edge="1" parent="1" source="hn8JCuyP-MTIvOFzyS8r-69" target="eeY6LI7gurINRhn50e_K-2">
          <mxGeometry relative="1" as="geometry">
            <Array as="points">
              <mxPoint x="1060" y="-114" />
            </Array>
          </mxGeometry>
        </mxCell>
        <mxCell id="hn8JCuyP-MTIvOFzyS8r-69" value="Statistics service" style="rounded=0;whiteSpace=wrap;html=1;fontStyle=1" vertex="1" parent="1">
          <mxGeometry x="1000" y="-214" width="120" height="60" as="geometry" />
        </mxCell>
        <mxCell id="hn8JCuyP-MTIvOFzyS8r-68" style="edgeStyle=orthogonalEdgeStyle;rounded=0;orthogonalLoop=1;jettySize=auto;html=1;startArrow=classic;startFill=1;" edge="1" parent="1" source="hn8JCuyP-MTIvOFzyS8r-69" target="hn8JCuyP-MTIvOFzyS8r-81">
          <mxGeometry relative="1" as="geometry">
            <Array as="points">
              <mxPoint x="1120" y="-180" />
              <mxPoint x="1120" y="-180" />
            </Array>
          </mxGeometry>
        </mxCell>
        <mxCell id="hn8JCuyP-MTIvOFzyS8r-81" value="&lt;b&gt;Secondary info DB Server&lt;br style=&quot;border-color: var(--border-color); color: rgb(0, 0, 0);&quot;&gt;&lt;/b&gt;&amp;lt;MS SQL Server&amp;gt;" style="sketch=0;outlineConnect=0;fontColor=#232F3E;gradientColor=none;fillColor=#C925D1;strokeColor=none;dashed=0;verticalLabelPosition=bottom;verticalAlign=top;align=center;html=1;fontSize=12;fontStyle=0;aspect=fixed;pointerEvents=1;shape=mxgraph.aws4.rds_sql_server_instance;" vertex="1" parent="1">
          <mxGeometry x="1460" y="-223" width="78" height="78" as="geometry" />
        </mxCell>
        <mxCell id="hn8JCuyP-MTIvOFzyS8r-64" style="edgeStyle=orthogonalEdgeStyle;rounded=0;orthogonalLoop=1;jettySize=auto;html=1;startArrow=classic;startFill=1;" edge="1" parent="1" source="hn8JCuyP-MTIvOFzyS8r-65" target="hn8JCuyP-MTIvOFzyS8r-81">
          <mxGeometry relative="1" as="geometry">
            <Array as="points">
              <mxPoint x="1160" y="70" />
              <mxPoint x="1160" y="-184" />
            </Array>
          </mxGeometry>
        </mxCell>
        <mxCell id="XeERWds_iLC4FEaqR78I-5" style="edgeStyle=orthogonalEdgeStyle;rounded=0;orthogonalLoop=1;jettySize=auto;html=1;fillColor=#d80073;strokeColor=#A50040;" edge="1" parent="1" source="hn8JCuyP-MTIvOFzyS8r-65" target="XeERWds_iLC4FEaqR78I-2">
          <mxGeometry relative="1" as="geometry">
            <Array as="points">
              <mxPoint x="1060" y="136" />
            </Array>
          </mxGeometry>
        </mxCell>
        <mxCell id="hn8JCuyP-MTIvOFzyS8r-65" value="Rules service" style="rounded=0;whiteSpace=wrap;html=1;fontStyle=1" vertex="1" parent="1">
          <mxGeometry x="1000" y="40" width="120" height="60" as="geometry" />
        </mxCell>
        <mxCell id="6u9Non0IeprhpMsQk1gf-11" style="edgeStyle=orthogonalEdgeStyle;rounded=0;orthogonalLoop=1;jettySize=auto;html=1;startArrow=classic;startFill=1;" edge="1" parent="1" source="hn8JCuyP-MTIvOFzyS8r-67" target="hn8JCuyP-MTIvOFzyS8r-81">
          <mxGeometry relative="1" as="geometry">
            <Array as="points">
              <mxPoint x="1160" y="-60" />
              <mxPoint x="1160" y="-184" />
            </Array>
          </mxGeometry>
        </mxCell>
        <mxCell id="b5eZytghJr9PdRg-iDmn-9" value="Statistics&lt;br&gt;Roles info&lt;br&gt;Rules" style="edgeLabel;html=1;align=center;verticalAlign=middle;resizable=0;points=[];" vertex="1" connectable="0" parent="6u9Non0IeprhpMsQk1gf-11">
          <mxGeometry x="0.3436" y="1" relative="1" as="geometry">
            <mxPoint x="103" y="1" as="offset" />
          </mxGeometry>
        </mxCell>
        <mxCell id="XeERWds_iLC4FEaqR78I-4" style="edgeStyle=orthogonalEdgeStyle;rounded=0;orthogonalLoop=1;jettySize=auto;html=1;fillColor=#d80073;strokeColor=#A50040;" edge="1" parent="1" source="hn8JCuyP-MTIvOFzyS8r-67" target="XeERWds_iLC4FEaqR78I-1">
          <mxGeometry relative="1" as="geometry">
            <Array as="points">
              <mxPoint x="1060" y="6" />
            </Array>
          </mxGeometry>
        </mxCell>
        <mxCell id="b5eZytghJr9PdRg-iDmn-12" value="Error messages" style="edgeLabel;html=1;align=center;verticalAlign=middle;resizable=0;points=[];" vertex="1" connectable="0" parent="XeERWds_iLC4FEaqR78I-4">
          <mxGeometry x="-0.6129" y="3" relative="1" as="geometry">
            <mxPoint x="34" y="-6" as="offset" />
          </mxGeometry>
        </mxCell>
        <mxCell id="hn8JCuyP-MTIvOFzyS8r-67" value="Roles service" style="rounded=0;whiteSpace=wrap;html=1;fontStyle=1" vertex="1" parent="1">
          <mxGeometry x="1000" y="-90" width="120" height="60" as="geometry" />
        </mxCell>
        <mxCell id="D0rBLhYkJJxkMWHGUxAH-1" value="port 443&lt;br&gt;TLS 1.2" style="text;html=1;align=left;verticalAlign=middle;resizable=0;points=[];autosize=1;strokeColor=none;fillColor=none;" vertex="1" parent="1">
          <mxGeometry x="490" y="-170" width="70" height="40" as="geometry" />
        </mxCell>
        <mxCell id="6u9Non0IeprhpMsQk1gf-1" value="port 443&lt;br&gt;TLS 1.2" style="text;html=1;align=left;verticalAlign=middle;resizable=0;points=[];autosize=1;strokeColor=none;fillColor=none;" vertex="1" parent="1">
          <mxGeometry x="620" y="-170" width="70" height="40" as="geometry" />
        </mxCell>
        <mxCell id="6u9Non0IeprhpMsQk1gf-3" value="" style="shape=flexArrow;endArrow=classic;startArrow=classic;html=1;rounded=0;exitX=0;exitY=0.25;exitDx=0;exitDy=0;" edge="1" parent="1" source="hn8JCuyP-MTIvOFzyS8r-78" target="hn8JCuyP-MTIvOFzyS8r-63">
          <mxGeometry width="100" height="100" relative="1" as="geometry">
            <mxPoint x="1010" y="-179" as="sourcePoint" />
            <mxPoint x="800" y="-175" as="targetPoint" />
          </mxGeometry>
        </mxCell>
        <mxCell id="6u9Non0IeprhpMsQk1gf-4" value="&lt;font style=&quot;font-size: 13px;&quot;&gt;HTTPS&lt;br&gt;&lt;/font&gt;" style="edgeLabel;html=1;align=center;verticalAlign=middle;resizable=0;points=[];" vertex="1" connectable="0" parent="6u9Non0IeprhpMsQk1gf-3">
          <mxGeometry x="0.0064" y="-1" relative="1" as="geometry">
            <mxPoint as="offset" />
          </mxGeometry>
        </mxCell>
        <mxCell id="6u9Non0IeprhpMsQk1gf-5" value="port 443&lt;br&gt;TLS 1.2" style="text;html=1;align=left;verticalAlign=middle;resizable=0;points=[];autosize=1;strokeColor=none;fillColor=none;" vertex="1" parent="1">
          <mxGeometry x="950" y="-330" width="70" height="40" as="geometry" />
        </mxCell>
        <mxCell id="6u9Non0IeprhpMsQk1gf-6" value="port 443&lt;br&gt;TLS 1.2" style="text;html=1;align=left;verticalAlign=middle;resizable=0;points=[];autosize=1;strokeColor=none;fillColor=none;" vertex="1" parent="1">
          <mxGeometry x="950" y="-170" width="70" height="40" as="geometry" />
        </mxCell>
        <mxCell id="6u9Non0IeprhpMsQk1gf-9" value="port 443&lt;br&gt;TLS 1.2" style="text;html=1;align=left;verticalAlign=middle;resizable=0;points=[];autosize=1;strokeColor=none;fillColor=none;" vertex="1" parent="1">
          <mxGeometry x="950" y="-70" width="70" height="40" as="geometry" />
        </mxCell>
        <mxCell id="6u9Non0IeprhpMsQk1gf-10" value="port 443&lt;br&gt;TLS 1.2" style="text;html=1;align=left;verticalAlign=middle;resizable=0;points=[];autosize=1;strokeColor=none;fillColor=none;" vertex="1" parent="1">
          <mxGeometry x="950" y="70" width="70" height="40" as="geometry" />
        </mxCell>
        <mxCell id="eeY6LI7gurINRhn50e_K-1" value="Errors Service" style="rounded=0;whiteSpace=wrap;html=1;" vertex="1" parent="1">
          <mxGeometry x="1224" y="230" width="120" height="60" as="geometry" />
        </mxCell>
        <mxCell id="XeERWds_iLC4FEaqR78I-6" style="edgeStyle=orthogonalEdgeStyle;rounded=0;orthogonalLoop=1;jettySize=auto;html=1;entryX=1;entryY=0.5;entryDx=0;entryDy=0;" edge="1" parent="1" source="eeY6LI7gurINRhn50e_K-2" target="eeY6LI7gurINRhn50e_K-1">
          <mxGeometry relative="1" as="geometry">
            <Array as="points">
              <mxPoint x="1364" y="-114" />
              <mxPoint x="1364" y="260" />
            </Array>
          </mxGeometry>
        </mxCell>
        <mxCell id="XeERWds_iLC4FEaqR78I-9" value="" style="edgeStyle=orthogonalEdgeStyle;rounded=0;orthogonalLoop=1;jettySize=auto;html=1;" edge="1" parent="1" source="eeY6LI7gurINRhn50e_K-2" target="XeERWds_iLC4FEaqR78I-1">
          <mxGeometry relative="1" as="geometry" />
        </mxCell>
        <mxCell id="eeY6LI7gurINRhn50e_K-2" value="Statistics errors queue" style="sketch=0;outlineConnect=0;fontColor=#232F3E;gradientColor=none;fillColor=#E7157B;strokeColor=none;dashed=0;verticalLabelPosition=bottom;verticalAlign=top;align=center;html=1;fontSize=12;fontStyle=0;aspect=fixed;pointerEvents=1;shape=mxgraph.aws4.queue;" vertex="1" parent="1">
          <mxGeometry x="1241" y="-140" width="85.88" height="51.75" as="geometry" />
        </mxCell>
        <mxCell id="XeERWds_iLC4FEaqR78I-7" style="edgeStyle=orthogonalEdgeStyle;rounded=0;orthogonalLoop=1;jettySize=auto;html=1;entryX=1;entryY=0.5;entryDx=0;entryDy=0;" edge="1" parent="1" source="XeERWds_iLC4FEaqR78I-1" target="eeY6LI7gurINRhn50e_K-1">
          <mxGeometry relative="1" as="geometry">
            <Array as="points">
              <mxPoint x="1364" y="6" />
              <mxPoint x="1364" y="260" />
            </Array>
          </mxGeometry>
        </mxCell>
        <mxCell id="XeERWds_iLC4FEaqR78I-1" value="Roles errors queue" style="sketch=0;outlineConnect=0;fontColor=#232F3E;gradientColor=none;fillColor=#E7157B;strokeColor=none;dashed=0;verticalLabelPosition=bottom;verticalAlign=top;align=center;html=1;fontSize=12;fontStyle=0;aspect=fixed;pointerEvents=1;shape=mxgraph.aws4.queue;" vertex="1" parent="1">
          <mxGeometry x="1241" y="-20" width="85.88" height="51.75" as="geometry" />
        </mxCell>
        <mxCell id="XeERWds_iLC4FEaqR78I-8" style="edgeStyle=orthogonalEdgeStyle;rounded=0;orthogonalLoop=1;jettySize=auto;html=1;entryX=1;entryY=0.5;entryDx=0;entryDy=0;" edge="1" parent="1" source="XeERWds_iLC4FEaqR78I-2" target="eeY6LI7gurINRhn50e_K-1">
          <mxGeometry relative="1" as="geometry">
            <Array as="points">
              <mxPoint x="1364" y="136" />
              <mxPoint x="1364" y="260" />
            </Array>
          </mxGeometry>
        </mxCell>
        <mxCell id="XeERWds_iLC4FEaqR78I-2" value="Rules errors queue" style="sketch=0;outlineConnect=0;fontColor=#232F3E;gradientColor=none;fillColor=#E7157B;strokeColor=none;dashed=0;verticalLabelPosition=bottom;verticalAlign=top;align=center;html=1;fontSize=12;fontStyle=0;aspect=fixed;pointerEvents=1;shape=mxgraph.aws4.queue;" vertex="1" parent="1">
          <mxGeometry x="1241" y="110" width="85.88" height="51.75" as="geometry" />
        </mxCell>
        <mxCell id="XeERWds_iLC4FEaqR78I-12" style="edgeStyle=orthogonalEdgeStyle;rounded=0;orthogonalLoop=1;jettySize=auto;html=1;entryX=1;entryY=0.5;entryDx=0;entryDy=0;" edge="1" parent="1" source="XeERWds_iLC4FEaqR78I-10" target="eeY6LI7gurINRhn50e_K-1">
          <mxGeometry relative="1" as="geometry">
            <Array as="points">
              <mxPoint x="1364" y="-254" />
              <mxPoint x="1364" y="260" />
            </Array>
          </mxGeometry>
        </mxCell>
        <mxCell id="XeERWds_iLC4FEaqR78I-10" value="Statistics errors queue" style="sketch=0;outlineConnect=0;fontColor=#232F3E;gradientColor=none;fillColor=#E7157B;strokeColor=none;dashed=0;verticalLabelPosition=bottom;verticalAlign=top;align=center;html=1;fontSize=12;fontStyle=0;aspect=fixed;pointerEvents=1;shape=mxgraph.aws4.queue;" vertex="1" parent="1">
          <mxGeometry x="1241" y="-280" width="85.88" height="51.75" as="geometry" />
        </mxCell>
        <mxCell id="b5eZytghJr9PdRg-iDmn-8" style="edgeStyle=orthogonalEdgeStyle;rounded=0;orthogonalLoop=1;jettySize=auto;html=1;" edge="1" parent="1" source="b5eZytghJr9PdRg-iDmn-5" target="b5eZytghJr9PdRg-iDmn-6">
          <mxGeometry relative="1" as="geometry" />
        </mxCell>
        <mxCell id="b5eZytghJr9PdRg-iDmn-5" value="Primary errors queue" style="sketch=0;outlineConnect=0;fontColor=#232F3E;gradientColor=none;fillColor=#E7157B;strokeColor=none;dashed=0;verticalLabelPosition=bottom;verticalAlign=top;align=center;html=1;fontSize=12;fontStyle=0;aspect=fixed;pointerEvents=1;shape=mxgraph.aws4.queue;" vertex="1" parent="1">
          <mxGeometry x="440" width="85.88" height="51.75" as="geometry" />
        </mxCell>
        <mxCell id="b5eZytghJr9PdRg-iDmn-6" value="Errors Service" style="rounded=0;whiteSpace=wrap;html=1;" vertex="1" parent="1">
          <mxGeometry x="422.94000000000005" y="110" width="120" height="60" as="geometry" />
        </mxCell>
        <mxCell id="b5eZytghJr9PdRg-iDmn-7" value="" style="endArrow=classic;html=1;rounded=0;fillColor=#d80073;strokeColor=#A50040;" edge="1" parent="1" source="hn8JCuyP-MTIvOFzyS8r-55" target="b5eZytghJr9PdRg-iDmn-5">
          <mxGeometry width="50" height="50" relative="1" as="geometry">
            <mxPoint x="540" y="50" as="sourcePoint" />
            <mxPoint x="590" as="targetPoint" />
          </mxGeometry>
        </mxCell>
        <mxCell id="b5eZytghJr9PdRg-iDmn-10" value="Error messages" style="edgeLabel;html=1;align=center;verticalAlign=middle;resizable=0;points=[];" vertex="1" connectable="0" parent="b5eZytghJr9PdRg-iDmn-7">
          <mxGeometry x="-0.1902" y="-1" relative="1" as="geometry">
            <mxPoint as="offset" />
          </mxGeometry>
        </mxCell>
        <mxCell id="b5eZytghJr9PdRg-iDmn-11" value="&lt;span style=&quot;color: rgb(0, 0, 0); font-family: Helvetica; font-size: 11px; font-style: normal; font-variant-ligatures: normal; font-variant-caps: normal; font-weight: 400; letter-spacing: normal; orphans: 2; text-align: center; text-indent: 0px; text-transform: none; widows: 2; word-spacing: 0px; -webkit-text-stroke-width: 0px; background-color: rgb(255, 255, 255); text-decoration-thickness: initial; text-decoration-style: initial; text-decoration-color: initial; float: none; display: inline !important;&quot;&gt;Error messages&lt;/span&gt;" style="text;whiteSpace=wrap;html=1;" vertex="1" parent="1">
          <mxGeometry x="1060" y="-135" width="110" height="40" as="geometry" />
        </mxCell>
        <mxCell id="b5eZytghJr9PdRg-iDmn-14" value="&lt;span style=&quot;color: rgb(0, 0, 0); font-family: Helvetica; font-size: 11px; font-style: normal; font-variant-ligatures: normal; font-variant-caps: normal; font-weight: 400; letter-spacing: normal; orphans: 2; text-align: center; text-indent: 0px; text-transform: none; widows: 2; word-spacing: 0px; -webkit-text-stroke-width: 0px; background-color: rgb(255, 255, 255); text-decoration-thickness: initial; text-decoration-style: initial; text-decoration-color: initial; float: none; display: inline !important;&quot;&gt;Error messages&lt;/span&gt;" style="text;whiteSpace=wrap;html=1;" vertex="1" parent="1">
          <mxGeometry x="1061" y="116" width="110" height="40" as="geometry" />
        </mxCell>
        <mxCell id="b5eZytghJr9PdRg-iDmn-15" value="&lt;span style=&quot;color: rgb(0, 0, 0); font-family: Helvetica; font-size: 11px; font-style: normal; font-variant-ligatures: normal; font-variant-caps: normal; font-weight: 400; letter-spacing: normal; orphans: 2; text-align: center; text-indent: 0px; text-transform: none; widows: 2; word-spacing: 0px; -webkit-text-stroke-width: 0px; background-color: rgb(255, 255, 255); text-decoration-thickness: initial; text-decoration-style: initial; text-decoration-color: initial; float: none; display: inline !important;&quot;&gt;Error messages&lt;/span&gt;" style="text;whiteSpace=wrap;html=1;" vertex="1" parent="1">
          <mxGeometry x="1061" y="-274" width="110" height="40" as="geometry" />
        </mxCell>
        <mxCell id="b5eZytghJr9PdRg-iDmn-16" value="port 443&lt;br&gt;TLS 1.2" style="text;html=1;align=left;verticalAlign=middle;resizable=0;points=[];autosize=1;strokeColor=none;fillColor=none;" vertex="1" parent="1">
          <mxGeometry x="525.88" y="170" width="70" height="40" as="geometry" />
        </mxCell>
        <mxCell id="b5eZytghJr9PdRg-iDmn-17" value="port 443&lt;br&gt;TLS 1.2" style="text;html=1;align=left;verticalAlign=middle;resizable=0;points=[];autosize=1;strokeColor=none;fillColor=none;" vertex="1" parent="1">
          <mxGeometry x="1171" y="280" width="70" height="40" as="geometry" />
        </mxCell>
        <mxCell id="b5eZytghJr9PdRg-iDmn-18" value="port 443&lt;br&gt;TLS 1.2" style="text;html=1;align=left;verticalAlign=middle;resizable=0;points=[];autosize=1;strokeColor=none;fillColor=none;" vertex="1" parent="1">
          <mxGeometry x="780" y="190" width="70" height="40" as="geometry" />
        </mxCell>
        <mxCell id="hn8JCuyP-MTIvOFzyS8r-89" value="Monitoring gateway&lt;br&gt;Internal" style="strokeColor=#dddddd;shadow=1;strokeWidth=1;rounded=1;absoluteArcSize=1;arcSize=2;labelPosition=center;verticalLabelPosition=middle;align=center;verticalAlign=bottom;spacingLeft=0;fontColor=#999999;fontSize=12;whiteSpace=wrap;spacingBottom=2;html=1;" vertex="1" parent="1">
          <mxGeometry x="230" y="374.66" width="520" height="85" as="geometry" />
        </mxCell>
        <mxCell id="hn8JCuyP-MTIvOFzyS8r-90" value="" style="sketch=0;dashed=0;connectable=0;html=1;fillColor=#757575;strokeColor=none;shape=mxgraph.gcp2.gateway_icon;part=1;" vertex="1" parent="hn8JCuyP-MTIvOFzyS8r-89">
          <mxGeometry x="0.5" width="50" height="22" relative="1" as="geometry">
            <mxPoint x="-25" y="24" as="offset" />
          </mxGeometry>
        </mxCell>
        <mxCell id="hn8JCuyP-MTIvOFzyS8r-83" value="" style="shape=flexArrow;endArrow=classic;startArrow=classic;html=1;rounded=0;entryX=0.25;entryY=1;entryDx=0;entryDy=0;" edge="1" parent="1" source="hn8JCuyP-MTIvOFzyS8r-87" target="hn8JCuyP-MTIvOFzyS8r-89">
          <mxGeometry width="100" height="100" relative="1" as="geometry">
            <mxPoint x="410" y="1044.66" as="sourcePoint" />
            <mxPoint x="450" y="914.66" as="targetPoint" />
          </mxGeometry>
        </mxCell>
        <mxCell id="hn8JCuyP-MTIvOFzyS8r-84" value="&lt;font style=&quot;font-size: 13px;&quot;&gt;HTTP&lt;/font&gt;" style="edgeLabel;html=1;align=center;verticalAlign=middle;resizable=0;points=[];" vertex="1" connectable="0" parent="hn8JCuyP-MTIvOFzyS8r-83">
          <mxGeometry x="0.0064" y="-1" relative="1" as="geometry">
            <mxPoint as="offset" />
          </mxGeometry>
        </mxCell>
        <mxCell id="hn8JCuyP-MTIvOFzyS8r-85" value="" style="shape=flexArrow;endArrow=classic;startArrow=classic;html=1;rounded=0;entryX=0.75;entryY=1;entryDx=0;entryDy=0;" edge="1" parent="1" source="hn8JCuyP-MTIvOFzyS8r-88" target="hn8JCuyP-MTIvOFzyS8r-89">
          <mxGeometry width="100" height="100" relative="1" as="geometry">
            <mxPoint x="720" y="1044.66" as="sourcePoint" />
            <mxPoint x="700" y="904.66" as="targetPoint" />
          </mxGeometry>
        </mxCell>
        <mxCell id="hn8JCuyP-MTIvOFzyS8r-86" value="&lt;font style=&quot;font-size: 13px;&quot;&gt;HTTP&lt;/font&gt;" style="edgeLabel;html=1;align=center;verticalAlign=middle;resizable=0;points=[];" vertex="1" connectable="0" parent="hn8JCuyP-MTIvOFzyS8r-85">
          <mxGeometry x="0.0064" y="-1" relative="1" as="geometry">
            <mxPoint as="offset" />
          </mxGeometry>
        </mxCell>
        <mxCell id="hn8JCuyP-MTIvOFzyS8r-87" value="&lt;b&gt;Load monitoring&lt;/b&gt;" style="rounded=0;whiteSpace=wrap;html=1;" vertex="1" parent="1">
          <mxGeometry x="250" y="604.66" width="220" height="80" as="geometry" />
        </mxCell>
        <mxCell id="hn8JCuyP-MTIvOFzyS8r-88" value="&lt;b&gt;Errors monitoring&lt;/b&gt;" style="rounded=0;whiteSpace=wrap;html=1;" vertex="1" parent="1">
          <mxGeometry x="510" y="604.66" width="220" height="80" as="geometry" />
        </mxCell>
        <mxCell id="b5eZytghJr9PdRg-iDmn-19" value="port 80" style="text;html=1;align=left;verticalAlign=middle;resizable=0;points=[];autosize=1;strokeColor=none;fillColor=none;" vertex="1" parent="1">
          <mxGeometry x="640" y="579.66" width="60" height="30" as="geometry" />
        </mxCell>
        <mxCell id="b5eZytghJr9PdRg-iDmn-20" value="port 80" style="text;html=1;align=left;verticalAlign=middle;resizable=0;points=[];autosize=1;strokeColor=none;fillColor=none;" vertex="1" parent="1">
          <mxGeometry x="380" y="579.66" width="60" height="30" as="geometry" />
        </mxCell>
        <mxCell id="CfrtXOvGoR3Pa-GDq8Gx-1" value="Monitoring panel&lt;br&gt;Front end" style="rounded=0;whiteSpace=wrap;html=1;" vertex="1" parent="1">
          <mxGeometry x="230" y="230" width="120" height="70" as="geometry" />
        </mxCell>
        <mxCell id="CfrtXOvGoR3Pa-GDq8Gx-3" value="" style="shape=flexArrow;endArrow=classic;startArrow=classic;html=1;rounded=0;" edge="1" parent="1" target="CfrtXOvGoR3Pa-GDq8Gx-1">
          <mxGeometry width="100" height="100" relative="1" as="geometry">
            <mxPoint x="290" y="370" as="sourcePoint" />
            <mxPoint x="583" y="385" as="targetPoint" />
          </mxGeometry>
        </mxCell>
        <mxCell id="CfrtXOvGoR3Pa-GDq8Gx-4" value="&lt;font style=&quot;font-size: 13px;&quot;&gt;HTTPS&lt;br&gt;&lt;/font&gt;" style="edgeLabel;html=1;align=center;verticalAlign=middle;resizable=0;points=[];" vertex="1" connectable="0" parent="CfrtXOvGoR3Pa-GDq8Gx-3">
          <mxGeometry x="0.0064" y="-1" relative="1" as="geometry">
            <mxPoint x="-1" as="offset" />
          </mxGeometry>
        </mxCell>
        <mxCell id="CfrtXOvGoR3Pa-GDq8Gx-5" value="port 443&lt;br&gt;TLS 1.2" style="text;html=1;align=left;verticalAlign=middle;resizable=0;points=[];autosize=1;strokeColor=none;fillColor=none;" vertex="1" parent="1">
          <mxGeometry x="510" y="334.65999999999997" width="70" height="40" as="geometry" />
        </mxCell>
        <mxCell id="CfrtXOvGoR3Pa-GDq8Gx-6" value="port 443&lt;br&gt;TLS 1.2" style="text;html=1;align=left;verticalAlign=middle;resizable=0;points=[];autosize=1;strokeColor=none;fillColor=none;" vertex="1" parent="1">
          <mxGeometry x="310" y="340" width="70" height="40" as="geometry" />
        </mxCell>
        <mxCell id="CfrtXOvGoR3Pa-GDq8Gx-8" value="port 80" style="text;html=1;align=left;verticalAlign=middle;resizable=0;points=[];autosize=1;strokeColor=none;fillColor=none;" vertex="1" parent="1">
          <mxGeometry x="640" y="459.65999999999997" width="60" height="30" as="geometry" />
        </mxCell>
        <mxCell id="CfrtXOvGoR3Pa-GDq8Gx-9" value="port 80" style="text;html=1;align=left;verticalAlign=middle;resizable=0;points=[];autosize=1;strokeColor=none;fillColor=none;" vertex="1" parent="1">
          <mxGeometry x="380" y="459.65999999999997" width="60" height="30" as="geometry" />
        </mxCell>
      </root>
    </mxGraphModel>
  </diagram>
  <diagram id="8Y717pMfgcZYt9ctmQBF" name="Environment">
    <mxGraphModel dx="1412" dy="2819" grid="1" gridSize="10" guides="1" tooltips="1" connect="1" arrows="1" fold="1" page="1" pageScale="1" pageWidth="827" pageHeight="1169" math="0" shadow="0">
      <root>
        <mxCell id="0" />
        <mxCell id="1" parent="0" />
        <mxCell id="r_3-sXeW1k5ZncGO9ODH-1" value="App instance server" style="swimlane;whiteSpace=wrap;html=1;" vertex="1" parent="1">
          <mxGeometry x="130" y="90" width="580" height="500" as="geometry" />
        </mxCell>
        <mxCell id="r_3-sXeW1k5ZncGO9ODH-2" value="&lt;b&gt;Documents DB&lt;/b&gt;&lt;br&gt;&amp;lt;Mongo DB&amp;gt;" style="shape=cylinder3;whiteSpace=wrap;html=1;boundedLbl=1;backgroundOutline=1;size=15;" vertex="1" parent="r_3-sXeW1k5ZncGO9ODH-1">
          <mxGeometry x="270" y="220" width="110" height="80" as="geometry" />
        </mxCell>
        <mxCell id="r_3-sXeW1k5ZncGO9ODH-3" value="&lt;b&gt;App info DB Server&lt;br style=&quot;border-color: var(--border-color); color: rgb(0, 0, 0);&quot;&gt;&lt;/b&gt;&amp;lt;MS SQL Server&amp;gt;" style="sketch=0;outlineConnect=0;fontColor=#232F3E;gradientColor=none;fillColor=#C925D1;strokeColor=none;dashed=0;verticalLabelPosition=bottom;verticalAlign=top;align=center;html=1;fontSize=12;fontStyle=0;aspect=fixed;pointerEvents=1;shape=mxgraph.aws4.rds_sql_server_instance;" vertex="1" parent="r_3-sXeW1k5ZncGO9ODH-1">
          <mxGeometry x="286" y="96" width="78" height="78" as="geometry" />
        </mxCell>
        <mxCell id="r_3-sXeW1k5ZncGO9ODH-4" value="&lt;b&gt;Back end&lt;br&gt;Primary services&lt;/b&gt;&lt;br&gt;&amp;lt;Users&amp;gt;&lt;br&gt;&amp;lt;Roles&amp;gt;&lt;br&gt;&amp;lt;Skills&amp;gt;&lt;br&gt;&amp;lt;Assessments&amp;gt;&lt;br&gt;&amp;lt;Positions&amp;gt;&lt;br&gt;&amp;lt;Scheduler&amp;gt;" style="rounded=0;whiteSpace=wrap;html=1;" vertex="1" parent="r_3-sXeW1k5ZncGO9ODH-1">
          <mxGeometry x="40" y="50" width="160" height="170" as="geometry" />
        </mxCell>
        <mxCell id="r_3-sXeW1k5ZncGO9ODH-5" value="Hangfire worker" style="outlineConnect=0;dashed=0;verticalLabelPosition=bottom;verticalAlign=top;align=center;html=1;shape=mxgraph.aws3.worker;fillColor=#D9A741;gradientColor=none;" vertex="1" parent="r_3-sXeW1k5ZncGO9ODH-1">
          <mxGeometry x="130" y="310" width="60" height="63" as="geometry" />
        </mxCell>
        <mxCell id="r_3-sXeW1k5ZncGO9ODH-6" value="" style="endArrow=classic;startArrow=classic;html=1;rounded=0;" edge="1" parent="r_3-sXeW1k5ZncGO9ODH-1" source="r_3-sXeW1k5ZncGO9ODH-3" target="r_3-sXeW1k5ZncGO9ODH-4">
          <mxGeometry width="50" height="50" relative="1" as="geometry">
            <mxPoint x="620" y="270" as="sourcePoint" />
            <mxPoint x="670" y="220" as="targetPoint" />
          </mxGeometry>
        </mxCell>
        <mxCell id="r_3-sXeW1k5ZncGO9ODH-7" value="" style="endArrow=classic;startArrow=classic;html=1;rounded=0;" edge="1" parent="r_3-sXeW1k5ZncGO9ODH-1" source="r_3-sXeW1k5ZncGO9ODH-2" target="r_3-sXeW1k5ZncGO9ODH-4">
          <mxGeometry width="50" height="50" relative="1" as="geometry">
            <mxPoint x="147" y="300" as="sourcePoint" />
            <mxPoint x="162" y="230" as="targetPoint" />
          </mxGeometry>
        </mxCell>
        <mxCell id="r_3-sXeW1k5ZncGO9ODH-8" value="" style="endArrow=classic;startArrow=classic;html=1;rounded=0;" edge="1" parent="r_3-sXeW1k5ZncGO9ODH-1" source="r_3-sXeW1k5ZncGO9ODH-5" target="r_3-sXeW1k5ZncGO9ODH-4">
          <mxGeometry width="50" height="50" relative="1" as="geometry">
            <mxPoint x="250" y="340" as="sourcePoint" />
            <mxPoint x="300" y="290" as="targetPoint" />
          </mxGeometry>
        </mxCell>
        <mxCell id="r_3-sXeW1k5ZncGO9ODH-9" value="Redis cache" style="image;sketch=0;aspect=fixed;html=1;points=[];align=center;fontSize=12;image=img/lib/mscae/Cache_Redis_Product.svg;" vertex="1" parent="r_3-sXeW1k5ZncGO9ODH-1">
          <mxGeometry x="30" y="310" width="71.43" height="60" as="geometry" />
        </mxCell>
        <mxCell id="r_3-sXeW1k5ZncGO9ODH-10" value="" style="endArrow=classic;startArrow=classic;html=1;rounded=0;" edge="1" parent="r_3-sXeW1k5ZncGO9ODH-1" source="r_3-sXeW1k5ZncGO9ODH-9" target="r_3-sXeW1k5ZncGO9ODH-4">
          <mxGeometry width="50" height="50" relative="1" as="geometry">
            <mxPoint x="430" y="240" as="sourcePoint" />
            <mxPoint x="480" y="190" as="targetPoint" />
          </mxGeometry>
        </mxCell>
        <mxCell id="NdxymmeGZhwtflWn7HBz-2" value="Errors Service" style="rounded=0;whiteSpace=wrap;html=1;" vertex="1" parent="r_3-sXeW1k5ZncGO9ODH-1">
          <mxGeometry x="420" y="340" width="120" height="60" as="geometry" />
        </mxCell>
        <mxCell id="NdxymmeGZhwtflWn7HBz-6" style="edgeStyle=orthogonalEdgeStyle;rounded=0;orthogonalLoop=1;jettySize=auto;html=1;" edge="1" parent="r_3-sXeW1k5ZncGO9ODH-1" source="NdxymmeGZhwtflWn7HBz-7" target="NdxymmeGZhwtflWn7HBz-2">
          <mxGeometry relative="1" as="geometry">
            <mxPoint x="350" y="370" as="sourcePoint" />
          </mxGeometry>
        </mxCell>
        <mxCell id="NdxymmeGZhwtflWn7HBz-5" value="" style="endArrow=classic;html=1;rounded=0;" edge="1" parent="r_3-sXeW1k5ZncGO9ODH-1" source="r_3-sXeW1k5ZncGO9ODH-4" target="NdxymmeGZhwtflWn7HBz-7">
          <mxGeometry width="50" height="50" relative="1" as="geometry">
            <mxPoint x="650" y="400" as="sourcePoint" />
            <mxPoint x="269.57446808510645" y="325" as="targetPoint" />
          </mxGeometry>
        </mxCell>
        <mxCell id="NdxymmeGZhwtflWn7HBz-7" value="Rabbit MQ" style="sketch=0;outlineConnect=0;fontColor=#232F3E;gradientColor=none;fillColor=#E7157B;strokeColor=none;dashed=0;verticalLabelPosition=bottom;verticalAlign=top;align=center;html=1;fontSize=12;fontStyle=0;aspect=fixed;pointerEvents=1;shape=mxgraph.aws4.queue;" vertex="1" parent="r_3-sXeW1k5ZncGO9ODH-1">
          <mxGeometry x="270" y="343.12" width="92.73" height="55.88" as="geometry" />
        </mxCell>
        <mxCell id="r_3-sXeW1k5ZncGO9ODH-11" value="Azure Kubernetes service" style="swimlane;whiteSpace=wrap;html=1;" vertex="1" parent="1">
          <mxGeometry x="800" y="90" width="690" height="560" as="geometry">
            <mxRectangle x="750" y="60" width="190" height="30" as="alternateBounds" />
          </mxGeometry>
        </mxCell>
        <mxCell id="r_3-sXeW1k5ZncGO9ODH-12" value="Gateway with orchestrator" style="rounded=0;whiteSpace=wrap;html=1;fontStyle=1" vertex="1" parent="r_3-sXeW1k5ZncGO9ODH-11">
          <mxGeometry x="275" y="40" width="120" height="60" as="geometry" />
        </mxCell>
        <mxCell id="r_3-sXeW1k5ZncGO9ODH-13" style="edgeStyle=orthogonalEdgeStyle;rounded=0;orthogonalLoop=1;jettySize=auto;html=1;startArrow=classic;startFill=1;" edge="1" parent="r_3-sXeW1k5ZncGO9ODH-11" source="r_3-sXeW1k5ZncGO9ODH-14" target="r_3-sXeW1k5ZncGO9ODH-26">
          <mxGeometry relative="1" as="geometry" />
        </mxCell>
        <mxCell id="Wf5gGQ6TkX4rmZNqAHia-3" style="edgeStyle=orthogonalEdgeStyle;rounded=0;orthogonalLoop=1;jettySize=auto;html=1;fillColor=#d80073;strokeColor=#A50040;" edge="1" parent="r_3-sXeW1k5ZncGO9ODH-11" source="r_3-sXeW1k5ZncGO9ODH-14" target="Wf5gGQ6TkX4rmZNqAHia-2">
          <mxGeometry relative="1" as="geometry">
            <Array as="points">
              <mxPoint x="190" y="220" />
              <mxPoint x="190" y="300" />
              <mxPoint x="327" y="300" />
            </Array>
          </mxGeometry>
        </mxCell>
        <mxCell id="r_3-sXeW1k5ZncGO9ODH-14" value="Rules service" style="rounded=0;whiteSpace=wrap;html=1;fontStyle=1" vertex="1" parent="r_3-sXeW1k5ZncGO9ODH-11">
          <mxGeometry x="50" y="190" width="120" height="60" as="geometry" />
        </mxCell>
        <mxCell id="r_3-sXeW1k5ZncGO9ODH-15" style="edgeStyle=orthogonalEdgeStyle;rounded=0;orthogonalLoop=1;jettySize=auto;html=1;startArrow=classic;startFill=1;" edge="1" parent="r_3-sXeW1k5ZncGO9ODH-11" source="r_3-sXeW1k5ZncGO9ODH-16" target="r_3-sXeW1k5ZncGO9ODH-26">
          <mxGeometry relative="1" as="geometry">
            <Array as="points">
              <mxPoint x="270" y="290" />
              <mxPoint x="110" y="290" />
            </Array>
          </mxGeometry>
        </mxCell>
        <mxCell id="Wf5gGQ6TkX4rmZNqAHia-4" style="edgeStyle=orthogonalEdgeStyle;rounded=0;orthogonalLoop=1;jettySize=auto;html=1;fillColor=#d80073;strokeColor=#A50040;" edge="1" parent="r_3-sXeW1k5ZncGO9ODH-11" source="r_3-sXeW1k5ZncGO9ODH-16" target="Wf5gGQ6TkX4rmZNqAHia-2">
          <mxGeometry relative="1" as="geometry">
            <Array as="points">
              <mxPoint x="327" y="270" />
              <mxPoint x="327" y="270" />
            </Array>
          </mxGeometry>
        </mxCell>
        <mxCell id="r_3-sXeW1k5ZncGO9ODH-16" value="Roles service" style="rounded=0;whiteSpace=wrap;html=1;fontStyle=1" vertex="1" parent="r_3-sXeW1k5ZncGO9ODH-11">
          <mxGeometry x="210" y="190" width="120" height="60" as="geometry" />
        </mxCell>
        <mxCell id="r_3-sXeW1k5ZncGO9ODH-17" style="edgeStyle=orthogonalEdgeStyle;rounded=0;orthogonalLoop=1;jettySize=auto;html=1;startArrow=classic;startFill=1;" edge="1" parent="r_3-sXeW1k5ZncGO9ODH-11" source="r_3-sXeW1k5ZncGO9ODH-18" target="r_3-sXeW1k5ZncGO9ODH-26">
          <mxGeometry relative="1" as="geometry">
            <Array as="points">
              <mxPoint x="430" y="290" />
              <mxPoint x="110" y="290" />
            </Array>
          </mxGeometry>
        </mxCell>
        <mxCell id="Wf5gGQ6TkX4rmZNqAHia-5" style="edgeStyle=orthogonalEdgeStyle;rounded=0;orthogonalLoop=1;jettySize=auto;html=1;fillColor=#d80073;strokeColor=#A50040;" edge="1" parent="r_3-sXeW1k5ZncGO9ODH-11" source="r_3-sXeW1k5ZncGO9ODH-18" target="Wf5gGQ6TkX4rmZNqAHia-2">
          <mxGeometry relative="1" as="geometry">
            <Array as="points">
              <mxPoint x="380" y="300" />
              <mxPoint x="327" y="300" />
            </Array>
          </mxGeometry>
        </mxCell>
        <mxCell id="r_3-sXeW1k5ZncGO9ODH-18" value="Statistics service" style="rounded=0;whiteSpace=wrap;html=1;fontStyle=1" vertex="1" parent="r_3-sXeW1k5ZncGO9ODH-11">
          <mxGeometry x="370" y="190" width="120" height="60" as="geometry" />
        </mxCell>
        <mxCell id="r_3-sXeW1k5ZncGO9ODH-19" value="" style="shape=flexArrow;endArrow=classic;startArrow=classic;html=1;rounded=0;" edge="1" parent="r_3-sXeW1k5ZncGO9ODH-11" source="r_3-sXeW1k5ZncGO9ODH-14" target="r_3-sXeW1k5ZncGO9ODH-12">
          <mxGeometry width="100" height="100" relative="1" as="geometry">
            <mxPoint x="60" y="540" as="sourcePoint" />
            <mxPoint x="160" y="450" as="targetPoint" />
          </mxGeometry>
        </mxCell>
        <mxCell id="r_3-sXeW1k5ZncGO9ODH-20" value="" style="shape=flexArrow;endArrow=classic;startArrow=classic;html=1;rounded=0;" edge="1" parent="r_3-sXeW1k5ZncGO9ODH-11" source="r_3-sXeW1k5ZncGO9ODH-16" target="r_3-sXeW1k5ZncGO9ODH-12">
          <mxGeometry width="100" height="100" relative="1" as="geometry">
            <mxPoint x="162" y="220" as="sourcePoint" />
            <mxPoint x="258" y="130" as="targetPoint" />
          </mxGeometry>
        </mxCell>
        <mxCell id="r_3-sXeW1k5ZncGO9ODH-21" value="" style="shape=flexArrow;endArrow=classic;startArrow=classic;html=1;rounded=0;" edge="1" parent="r_3-sXeW1k5ZncGO9ODH-11" source="r_3-sXeW1k5ZncGO9ODH-18" target="r_3-sXeW1k5ZncGO9ODH-12">
          <mxGeometry width="100" height="100" relative="1" as="geometry">
            <mxPoint x="290" y="220" as="sourcePoint" />
            <mxPoint x="290" y="130" as="targetPoint" />
          </mxGeometry>
        </mxCell>
        <mxCell id="r_3-sXeW1k5ZncGO9ODH-22" value="&lt;b&gt;Secondary documens DB&lt;br&gt;&lt;/b&gt;&amp;lt;Mongo DB&amp;gt;" style="shape=cylinder3;whiteSpace=wrap;html=1;boundedLbl=1;backgroundOutline=1;size=15;" vertex="1" parent="r_3-sXeW1k5ZncGO9ODH-11">
          <mxGeometry x="520" y="310" width="150" height="90" as="geometry" />
        </mxCell>
        <mxCell id="r_3-sXeW1k5ZncGO9ODH-23" style="edgeStyle=orthogonalEdgeStyle;rounded=0;orthogonalLoop=1;jettySize=auto;html=1;startArrow=classic;startFill=1;" edge="1" parent="r_3-sXeW1k5ZncGO9ODH-11" source="r_3-sXeW1k5ZncGO9ODH-24" target="r_3-sXeW1k5ZncGO9ODH-22">
          <mxGeometry relative="1" as="geometry" />
        </mxCell>
        <mxCell id="Wf5gGQ6TkX4rmZNqAHia-6" style="edgeStyle=orthogonalEdgeStyle;rounded=0;orthogonalLoop=1;jettySize=auto;html=1;fillColor=#d80073;strokeColor=#A50040;" edge="1" parent="r_3-sXeW1k5ZncGO9ODH-11" source="r_3-sXeW1k5ZncGO9ODH-24" target="Wf5gGQ6TkX4rmZNqAHia-2">
          <mxGeometry relative="1" as="geometry">
            <Array as="points">
              <mxPoint x="550" y="300" />
              <mxPoint x="327" y="300" />
            </Array>
          </mxGeometry>
        </mxCell>
        <mxCell id="r_3-sXeW1k5ZncGO9ODH-24" value="Attachments service" style="rounded=0;whiteSpace=wrap;html=1;fontStyle=1" vertex="1" parent="r_3-sXeW1k5ZncGO9ODH-11">
          <mxGeometry x="535" y="190" width="120" height="60" as="geometry" />
        </mxCell>
        <mxCell id="r_3-sXeW1k5ZncGO9ODH-25" value="" style="shape=flexArrow;endArrow=classic;startArrow=classic;html=1;rounded=0;" edge="1" parent="r_3-sXeW1k5ZncGO9ODH-11" source="r_3-sXeW1k5ZncGO9ODH-24" target="r_3-sXeW1k5ZncGO9ODH-12">
          <mxGeometry width="100" height="100" relative="1" as="geometry">
            <mxPoint x="416" y="220" as="sourcePoint" />
            <mxPoint x="359" y="130" as="targetPoint" />
          </mxGeometry>
        </mxCell>
        <mxCell id="r_3-sXeW1k5ZncGO9ODH-26" value="&lt;b&gt;Secondary info DB Server&lt;br style=&quot;border-color: var(--border-color); color: rgb(0, 0, 0);&quot;&gt;&lt;/b&gt;&amp;lt;MS SQL Server&amp;gt;" style="sketch=0;outlineConnect=0;fontColor=#232F3E;gradientColor=none;fillColor=#C925D1;strokeColor=none;dashed=0;verticalLabelPosition=bottom;verticalAlign=top;align=center;html=1;fontSize=12;fontStyle=0;aspect=fixed;pointerEvents=1;shape=mxgraph.aws4.rds_sql_server_instance;" vertex="1" parent="r_3-sXeW1k5ZncGO9ODH-11">
          <mxGeometry x="71" y="310" width="78" height="78" as="geometry" />
        </mxCell>
        <mxCell id="Wf5gGQ6TkX4rmZNqAHia-1" value="Errors Service" style="rounded=0;whiteSpace=wrap;html=1;" vertex="1" parent="r_3-sXeW1k5ZncGO9ODH-11">
          <mxGeometry x="267.06" y="450" width="120" height="60" as="geometry" />
        </mxCell>
        <mxCell id="Wf5gGQ6TkX4rmZNqAHia-7" style="edgeStyle=orthogonalEdgeStyle;rounded=0;orthogonalLoop=1;jettySize=auto;html=1;" edge="1" parent="r_3-sXeW1k5ZncGO9ODH-11" source="Wf5gGQ6TkX4rmZNqAHia-2" target="Wf5gGQ6TkX4rmZNqAHia-1">
          <mxGeometry relative="1" as="geometry" />
        </mxCell>
        <mxCell id="Wf5gGQ6TkX4rmZNqAHia-2" value="Rabbit MQ" style="sketch=0;outlineConnect=0;fontColor=#232F3E;gradientColor=none;fillColor=#E7157B;strokeColor=none;dashed=0;verticalLabelPosition=bottom;verticalAlign=top;align=center;html=1;fontSize=12;fontStyle=0;aspect=fixed;pointerEvents=1;shape=mxgraph.aws4.queue;" vertex="1" parent="r_3-sXeW1k5ZncGO9ODH-11">
          <mxGeometry x="284.12" y="336.25" width="85.88" height="51.75" as="geometry" />
        </mxCell>
        <mxCell id="r_3-sXeW1k5ZncGO9ODH-27" value="Internal network" style="swimlane;whiteSpace=wrap;html=1;" vertex="1" parent="1">
          <mxGeometry x="370" y="770" width="710" height="370" as="geometry" />
        </mxCell>
        <mxCell id="r_3-sXeW1k5ZncGO9ODH-32" value="Monitoring gateway&lt;br&gt;Internal" style="strokeColor=#dddddd;shadow=1;strokeWidth=1;rounded=1;absoluteArcSize=1;arcSize=2;labelPosition=center;verticalLabelPosition=middle;align=center;verticalAlign=bottom;spacingLeft=0;fontColor=#999999;fontSize=12;whiteSpace=wrap;spacingBottom=2;html=1;" vertex="1" parent="r_3-sXeW1k5ZncGO9ODH-27">
          <mxGeometry x="270" y="40" width="120" height="320" as="geometry" />
        </mxCell>
        <mxCell id="r_3-sXeW1k5ZncGO9ODH-33" value="" style="sketch=0;dashed=0;connectable=0;html=1;fillColor=#757575;strokeColor=none;shape=mxgraph.gcp2.gateway_icon;part=1;" vertex="1" parent="r_3-sXeW1k5ZncGO9ODH-32">
          <mxGeometry x="0.5" width="50" height="22" relative="1" as="geometry">
            <mxPoint x="-25" y="24" as="offset" />
          </mxGeometry>
        </mxCell>
        <mxCell id="r_3-sXeW1k5ZncGO9ODH-31" value="&lt;b&gt;Errors monitoring&lt;/b&gt;" style="rounded=0;whiteSpace=wrap;html=1;" vertex="1" parent="r_3-sXeW1k5ZncGO9ODH-27">
          <mxGeometry x="477.05999999999995" y="240" width="220" height="80" as="geometry" />
        </mxCell>
        <mxCell id="r_3-sXeW1k5ZncGO9ODH-29" value="" style="shape=flexArrow;endArrow=classic;startArrow=classic;html=1;rounded=0;entryX=1;entryY=0.75;entryDx=0;entryDy=0;" edge="1" parent="r_3-sXeW1k5ZncGO9ODH-27" source="r_3-sXeW1k5ZncGO9ODH-31" target="r_3-sXeW1k5ZncGO9ODH-32">
          <mxGeometry width="100" height="100" relative="1" as="geometry">
            <mxPoint x="580" y="260" as="sourcePoint" />
            <mxPoint x="560" y="120" as="targetPoint" />
          </mxGeometry>
        </mxCell>
        <mxCell id="r_3-sXeW1k5ZncGO9ODH-30" value="&lt;b&gt;Load monitoring&lt;/b&gt;" style="rounded=0;whiteSpace=wrap;html=1;" vertex="1" parent="r_3-sXeW1k5ZncGO9ODH-27">
          <mxGeometry x="477.05999999999995" y="80" width="220" height="80" as="geometry" />
        </mxCell>
        <mxCell id="r_3-sXeW1k5ZncGO9ODH-28" value="" style="shape=flexArrow;endArrow=classic;startArrow=classic;html=1;rounded=0;entryX=1;entryY=0.25;entryDx=0;entryDy=0;" edge="1" parent="r_3-sXeW1k5ZncGO9ODH-27" source="r_3-sXeW1k5ZncGO9ODH-30" target="r_3-sXeW1k5ZncGO9ODH-32">
          <mxGeometry width="100" height="100" relative="1" as="geometry">
            <mxPoint x="270" y="260" as="sourcePoint" />
            <mxPoint x="310" y="130" as="targetPoint" />
          </mxGeometry>
        </mxCell>
        <mxCell id="Wf5gGQ6TkX4rmZNqAHia-10" style="edgeStyle=orthogonalEdgeStyle;rounded=0;orthogonalLoop=1;jettySize=auto;html=1;" edge="1" parent="r_3-sXeW1k5ZncGO9ODH-27" source="Wf5gGQ6TkX4rmZNqAHia-9" target="r_3-sXeW1k5ZncGO9ODH-32">
          <mxGeometry relative="1" as="geometry" />
        </mxCell>
        <mxCell id="Wf5gGQ6TkX4rmZNqAHia-9" value="Monitoring panel&lt;br&gt;Front end" style="rounded=0;whiteSpace=wrap;html=1;" vertex="1" parent="r_3-sXeW1k5ZncGO9ODH-27">
          <mxGeometry x="44" y="50" width="120" height="300" as="geometry" />
        </mxCell>
        <mxCell id="r_3-sXeW1k5ZncGO9ODH-35" value="" style="shape=flexArrow;endArrow=classic;startArrow=classic;html=1;rounded=0;" edge="1" parent="1" source="r_3-sXeW1k5ZncGO9ODH-39" target="r_3-sXeW1k5ZncGO9ODH-32">
          <mxGeometry width="100" height="100" relative="1" as="geometry">
            <mxPoint x="647.5" y="740" as="sourcePoint" />
            <mxPoint x="536.6666666666667" y="820" as="targetPoint" />
          </mxGeometry>
        </mxCell>
        <mxCell id="r_3-sXeW1k5ZncGO9ODH-36" value="&lt;b&gt;Front end&lt;/b&gt;" style="rounded=0;whiteSpace=wrap;html=1;" vertex="1" parent="1">
          <mxGeometry x="170" y="-30" width="160" height="60" as="geometry" />
        </mxCell>
        <mxCell id="r_3-sXeW1k5ZncGO9ODH-37" value="" style="shape=flexArrow;endArrow=classic;startArrow=classic;html=1;rounded=0;" edge="1" parent="1" source="r_3-sXeW1k5ZncGO9ODH-4" target="r_3-sXeW1k5ZncGO9ODH-36">
          <mxGeometry width="100" height="100" relative="1" as="geometry">
            <mxPoint x="220" y="130" as="sourcePoint" />
            <mxPoint x="320" y="30" as="targetPoint" />
          </mxGeometry>
        </mxCell>
        <mxCell id="r_3-sXeW1k5ZncGO9ODH-38" value="" style="shape=flexArrow;endArrow=classic;startArrow=classic;html=1;rounded=0;exitX=1;exitY=0.118;exitDx=0;exitDy=0;exitPerimeter=0;" edge="1" parent="1" source="r_3-sXeW1k5ZncGO9ODH-4" target="r_3-sXeW1k5ZncGO9ODH-12">
          <mxGeometry width="100" height="100" relative="1" as="geometry">
            <mxPoint x="260" y="150" as="sourcePoint" />
            <mxPoint x="260" y="40" as="targetPoint" />
          </mxGeometry>
        </mxCell>
        <mxCell id="r_3-sXeW1k5ZncGO9ODH-39" value="Monitoring gateway&lt;br&gt;Public" style="image;aspect=fixed;perimeter=ellipsePerimeter;html=1;align=center;shadow=0;dashed=0;fontColor=#4277BB;labelBackgroundColor=default;fontSize=12;spacingTop=3;image=img/lib/ibm/vpc/PublicGateway.svg;" vertex="1" parent="1">
          <mxGeometry x="670" y="650" width="60" height="60" as="geometry" />
        </mxCell>
        <mxCell id="NdxymmeGZhwtflWn7HBz-8" value="" style="shape=flexArrow;endArrow=classic;html=1;rounded=0;" edge="1" parent="1" source="NdxymmeGZhwtflWn7HBz-2" target="r_3-sXeW1k5ZncGO9ODH-39">
          <mxGeometry width="50" height="50" relative="1" as="geometry">
            <mxPoint x="850" y="540" as="sourcePoint" />
            <mxPoint x="900" y="490" as="targetPoint" />
          </mxGeometry>
        </mxCell>
        <mxCell id="Wf5gGQ6TkX4rmZNqAHia-8" value="" style="shape=flexArrow;endArrow=classic;html=1;rounded=0;" edge="1" parent="1" source="Wf5gGQ6TkX4rmZNqAHia-1" target="r_3-sXeW1k5ZncGO9ODH-39">
          <mxGeometry width="50" height="50" relative="1" as="geometry">
            <mxPoint x="632" y="500" as="sourcePoint" />
            <mxPoint x="699" y="662" as="targetPoint" />
          </mxGeometry>
        </mxCell>
      </root>
    </mxGraphModel>
  </diagram>
</mxfile>
